<?xml version="1.0" encoding="utf-8"?>
<!DOCTYPE svg PUBLIC "-//W3C//DTD SVG 20010904//EN" "http://www.w3.org/TR/2001/REC-SVG-20010904/DTD/svg10.dtd">
<svg version="1.0" xmlns="http://www.w3.org/2000/svg" width="551pt" height="602pt" viewBox="0 0 551 602" style="" preserveAspectRatio="xMidYMid meet">
<g fill="#000000FF" stroke="#000000FF">
<path d="M 146.500 1.843 C 145.950 2.373 143.475 3.000 141.000 3.237 C 136.082 3.708 130.971 4.942 118.000 8.791 C 108.478 11.616 101.735 14.730 95.744 19.071 C 93.520 20.682 91.299 22.000 90.809 22.000 C 89.890 22.000 84.582 25.547 82.206 27.750 C 81.464 28.438 80.524 29.000 80.117 29.000 C 79.710 29.000 78.505 29.792 77.439 30.759 C 76.372 31.726 73.476 34.089 71.003 36.009 C 63.134 42.118 61.766 43.336 53.551 51.548 C 44.723 60.372 36.329 69.848 34.018 73.596 C 33.203 74.918 32.191 76.000 31.768 76.000 C 31.346 76.000 31.000 76.482 31.000 77.071 C 31.000 77.661 30.438 78.770 29.750 79.537 C 26.977 82.629 26.095 83.882 24.072 87.609 C 22.910 89.749 20.583 93.941 18.899 96.925 C 12.944 107.480 5.410 133.978 2.814 153.500 C 1.556 162.961 1.551 161.249 2.893 177.500 C 4.184 193.135 6.724 205.561 10.966 217.000 C 12.700 221.675 14.636 227.075 15.269 229.000 C 15.902 230.925 16.780 232.754 17.220 233.065 C 17.660 233.376 20.420 238.331 23.352 244.075 C 29.234 255.599 31.226 259.249 32.045 260.000 C 32.345 260.275 34.543 263.623 36.930 267.439 C 39.317 271.256 42.334 275.526 43.635 276.929 C 44.936 278.332 46.000 279.740 46.000 280.058 C 46.000 280.376 47.582 282.406 49.515 284.568 C 51.449 286.731 53.586 289.743 54.265 291.262 C 54.943 292.781 56.266 294.267 57.204 294.565 C 60.055 295.470 68.000 305.021 68.000 307.543 C 68.000 308.823 68.486 311.137 69.079 312.685 C 71.215 318.256 72.157 333.187 72.948 374.000 C 73.772 416.561 74.260 422.446 79.170 449.000 C 88.720 500.649 94.595 520.877 104.662 536.769 C 106.498 539.668 108.000 542.303 108.000 542.626 C 108.000 542.948 109.459 545.077 111.241 547.356 C 113.024 549.635 114.832 551.950 115.260 552.500 C 123.871 563.577 136.063 574.904 141.250 576.646 C 142.213 576.969 143.000 577.631 143.000 578.117 C 143.000 578.602 143.388 579.000 143.862 579.000 C 144.335 579.000 147.823 580.700 151.612 582.777 C 155.400 584.854 160.638 587.367 163.250 588.360 C 165.863 589.353 168.000 590.609 168.000 591.150 C 168.000 591.692 168.838 591.869 169.861 591.544 C 170.885 591.219 174.373 591.687 177.611 592.585 C 180.850 593.482 185.750 594.577 188.500 595.017 C 191.250 595.458 195.525 596.270 198.000 596.822 C 200.475 597.373 209.475 598.595 218.000 599.537 C 231.213 600.997 240.066 601.168 278.000 600.696 C 336.103 599.973 350.247 598.739 372.500 592.454 C 375.800 591.522 379.519 590.535 380.765 590.260 C 382.010 589.986 383.274 589.365 383.574 588.881 C 383.873 588.396 384.811 588.000 385.658 588.000 C 386.505 588.000 388.616 587.379 390.349 586.620 C 402.915 581.117 405.674 579.861 407.000 579.036 C 407.825 578.523 410.300 577.131 412.500 575.942 C 414.700 574.754 416.725 573.489 417.000 573.131 C 417.275 572.774 419.300 571.307 421.500 569.871 C 435.628 560.651 448.274 541.029 454.928 518.000 C 455.643 515.525 456.592 512.600 457.038 511.500 C 458.813 507.114 462.030 494.054 465.042 479.000 C 470.009 454.173 474.087 422.896 474.560 406.000 C 474.783 398.025 475.474 380.810 476.095 367.744 C 476.717 354.677 476.948 342.077 476.610 339.744 C 475.629 332.975 477.680 304.845 479.396 301.537 C 480.877 298.683 488.980 289.361 498.500 279.558 C 505.367 272.486 516.133 259.335 519.012 254.500 C 520.322 252.300 521.693 250.275 522.058 250.000 C 522.422 249.725 523.517 247.947 524.490 246.049 C 525.463 244.151 526.876 241.981 527.630 241.227 C 528.383 240.474 529.000 239.418 529.000 238.881 C 529.000 238.343 530.484 235.563 532.298 232.702 C 541.283 218.533 545.832 202.386 548.660 174.629 C 550.177 159.740 550.174 157.497 548.613 142.611 C 545.725 115.077 541.340 99.067 530.644 77.000 C 525.122 65.607 517.405 54.000 515.354 54.000 C 514.648 54.000 513.552 52.988 512.918 51.750 C 511.600 49.177 499.982 37.635 492.088 31.056 C 489.155 28.612 486.223 26.080 485.571 25.428 C 484.920 24.777 483.011 23.942 481.328 23.572 C 479.646 23.203 477.328 22.023 476.177 20.950 C 475.026 19.878 473.374 19.000 472.507 19.000 C 471.639 19.000 469.847 18.291 468.524 17.423 C 467.200 16.556 463.728 15.226 460.809 14.467 C 457.889 13.707 451.225 11.898 446.000 10.446 C 437.297 8.028 434.821 7.796 416.500 7.676 C 398.853 7.561 395.382 7.813 387.000 9.822 C 381.775 11.075 376.054 12.765 374.286 13.580 C 366.767 17.042 365.803 25.215 372.500 28.720 C 375.538 30.310 390.546 34.000 393.974 34.000 C 395.638 34.000 397.004 34.338 397.009 34.750 C 397.013 35.163 399.826 36.356 403.259 37.403 C 406.691 38.449 409.950 39.635 410.500 40.037 C 411.050 40.440 412.957 41.081 414.739 41.461 C 417.992 42.157 420.237 44.000 417.830 44.000 C 417.122 44.000 413.465 45.176 409.703 46.613 C 402.302 49.442 400.377 51.888 401.507 57.034 C 402.164 60.024 407.516 66.000 409.538 66.000 C 410.773 66.000 416.936 68.923 417.999 70.014 C 418.275 70.296 421.200 71.810 424.500 73.377 C 427.800 74.944 431.400 77.255 432.500 78.513 C 433.600 79.771 436.300 82.929 438.500 85.532 C 440.700 88.134 443.346 91.217 444.380 92.382 C 446.891 95.211 454.216 106.748 455.884 110.500 C 460.004 119.770 464.419 137.151 465.653 148.956 C 466.740 159.350 463.289 186.874 459.818 195.500 C 458.712 198.250 457.093 202.300 456.222 204.500 C 455.350 206.700 453.695 209.850 452.542 211.500 C 451.390 213.150 449.569 216.188 448.496 218.250 C 447.423 220.313 446.295 222.000 445.988 222.000 C 445.682 222.000 444.567 223.463 443.512 225.250 C 441.759 228.217 438.859 231.750 433.500 237.442 C 431.164 239.924 421.402 247.935 418.500 249.752 C 415.027 251.927 411.628 253.250 407.500 254.032 C 405.300 254.449 400.800 255.346 397.500 256.024 C 392.934 256.964 378.591 257.102 337.500 256.606 C 229.032 255.294 188.905 255.200 160.655 256.189 C 128.381 257.319 128.889 257.388 116.546 250.154 C 105.420 243.634 99.248 236.611 93.068 223.440 C 87.714 212.031 87.181 210.734 85.484 205.000 C 84.588 201.975 83.438 198.719 82.928 197.764 C 81.699 195.465 81.732 168.494 82.967 164.571 C 83.499 162.882 84.669 158.800 85.567 155.500 C 86.465 152.200 87.546 148.600 87.968 147.500 C 88.390 146.400 90.457 141.000 92.561 135.500 C 94.665 130.000 97.188 124.321 98.168 122.881 C 99.148 121.440 100.410 119.190 100.973 117.881 C 102.125 115.198 102.091 115.254 111.000 101.520 C 116.470 93.088 128.296 79.849 134.242 75.500 C 136.441 73.892 139.394 72.037 140.859 71.345 C 141.607 70.991 143.360 69.644 144.755 68.351 C 146.150 67.058 148.048 66.000 148.972 66.000 C 149.896 66.000 151.708 64.875 153.000 63.500 C 154.292 62.125 155.893 61.000 156.558 61.000 C 159.005 61.000 165.000 53.118 165.000 49.901 C 165.000 42.923 159.746 38.587 149.500 37.109 C 146.200 36.633 144.288 36.189 145.250 36.122 C 146.213 36.055 147.000 35.660 147.000 35.245 C 147.000 34.455 147.590 34.228 163.000 29.082 C 182.934 22.424 187.000 20.784 187.000 19.399 C 187.000 18.629 187.450 18.000 188.000 18.000 C 188.550 18.000 189.000 16.626 189.000 14.946 C 189.000 11.225 184.987 6.782 180.000 4.981 C 172.519 2.279 148.394 0.020 146.500 1.843 M 177.904 12.718 C 180.023 14.067 180.113 14.357 178.662 15.169 C 177.756 15.676 173.524 16.715 169.258 17.477 C 157.002 19.667 149.014 22.573 141.484 27.580 C 132.067 33.842 129.997 35.889 130.015 38.924 C 130.046 44.144 133.609 46.000 143.597 46.000 C 150.386 46.000 157.594 48.230 156.504 49.993 C 156.152 50.563 153.982 51.984 151.682 53.151 C 149.382 54.318 146.227 56.338 144.671 57.639 C 143.114 58.940 138.727 61.823 134.921 64.046 C 131.114 66.269 128.000 68.448 128.000 68.888 C 128.000 69.328 125.241 71.895 121.869 74.594 C 116.387 78.981 107.308 89.103 101.346 97.475 C 84.059 121.752 78.458 133.429 74.355 153.744 C 71.827 166.261 71.751 200.081 74.232 208.092 C 75.185 211.168 76.780 214.768 77.777 216.092 C 78.775 217.417 80.438 220.525 81.473 223.000 C 87.179 236.638 101.048 252.456 113.542 259.574 C 127.978 267.799 125.958 267.386 152.000 267.438 C 164.925 267.465 192.150 266.659 212.500 265.648 C 252.150 263.677 293.303 263.829 347.000 266.143 C 402.533 268.536 418.682 264.563 439.744 243.324 C 454.850 228.091 465.770 209.022 471.182 188.428 C 474.143 177.157 474.317 175.481 474.343 158.000 C 474.368 141.585 474.072 138.162 471.723 127.629 C 468.777 114.419 467.574 111.730 458.472 98.027 C 447.559 81.598 429.400 62.768 423.167 61.419 C 415.164 59.688 412.500 58.460 412.500 56.500 C 412.500 53.707 417.728 52.126 427.191 52.056 C 431.421 52.025 435.167 51.539 435.515 50.976 C 436.960 48.638 434.686 43.876 430.479 40.430 C 424.883 35.844 407.240 29.043 391.184 25.282 C 384.430 23.700 378.814 21.977 378.702 21.453 C 378.441 20.222 394.799 17.330 407.000 16.451 C 422.449 15.338 443.792 18.355 457.731 23.622 C 467.495 27.312 487.237 39.608 494.214 46.345 C 500.553 52.466 522.000 81.956 522.000 84.551 C 522.000 84.820 523.047 86.718 524.326 88.770 C 534.445 104.995 539.353 129.730 539.352 164.500 C 539.351 183.193 539.172 185.154 536.614 194.500 C 528.292 224.903 515.441 247.771 495.572 267.534 C 491.682 271.403 486.207 277.028 483.404 280.034 C 480.600 283.040 477.122 286.387 475.674 287.472 C 470.568 291.296 468.286 303.755 466.967 335.000 C 464.954 382.719 462.972 420.847 462.082 429.000 C 461.572 433.675 460.455 444.025 459.600 452.000 C 457.663 470.056 457.021 473.444 451.535 494.500 C 443.392 525.757 436.105 540.156 419.484 557.823 C 406.410 571.722 394.412 578.028 371.000 583.309 C 342.926 589.640 321.237 592.055 286.617 592.702 C 253.937 593.313 235.667 592.008 199.500 586.479 C 161.999 580.746 141.942 570.927 123.441 549.244 C 112.387 536.289 103.115 514.728 97.098 487.987 C 87.590 445.732 82.390 396.728 81.394 340.000 C 81.004 317.775 80.447 307.265 79.501 304.307 C 78.292 300.525 60.972 277.711 56.480 273.983 C 55.557 273.218 51.484 268.658 47.429 263.851 C 27.341 240.042 18.021 215.883 14.888 179.500 C 13.020 157.804 15.530 134.720 21.682 117.000 C 25.572 105.798 34.611 87.359 39.820 80.000 C 50.415 65.033 82.287 36.590 99.000 27.187 C 105.898 23.306 117.623 18.445 124.919 16.442 C 127.988 15.599 132.943 14.240 135.930 13.421 C 145.905 10.685 151.414 10.134 163.500 10.663 C 171.800 11.026 176.241 11.660 177.904 12.718 "/></g>
<g fill="#000000FF" stroke="#000000FF">
<path d="M 357.500 419.296 C 340.678 426.064 333.917 431.144 328.214 441.301 C 323.038 450.520 321.436 458.607 321.640 474.500 C 321.720 480.747 322.459 484.582 325.013 492.000 C 326.811 497.225 329.073 503.075 330.039 505.000 C 335.040 514.967 349.372 526.017 363.096 530.488 C 370.533 532.911 372.456 533.154 379.813 532.602 C 400.068 531.083 416.150 520.945 422.807 505.500 C 428.468 492.366 429.493 487.526 429.474 474.000 C 429.458 461.535 429.292 460.594 424.357 445.000 C 420.377 432.424 411.884 425.927 389.535 418.359 C 378.906 414.759 367.981 415.079 357.500 419.296 "/></g>
<g fill="#000000FF" stroke="#000000FF">
<path d="M 167.500 421.165 C 164.750 421.683 159.800 423.388 156.500 424.954 C 153.200 426.520 148.250 428.769 145.500 429.950 C 134.637 434.618 126.544 446.459 125.007 459.935 C 124.498 464.404 123.796 468.521 123.448 469.084 C 123.100 469.647 122.834 474.094 122.857 478.966 C 122.901 488.158 124.599 496.566 128.026 504.561 C 130.523 510.386 141.440 521.807 148.696 526.186 C 151.716 528.009 155.482 530.542 157.065 531.815 C 160.470 534.554 165.604 535.485 176.500 535.339 C 189.379 535.167 204.944 529.943 210.733 523.850 C 222.324 511.652 226.133 505.748 230.238 493.618 C 233.155 485.001 233.149 469.026 230.227 460.128 C 227.859 452.921 222.222 443.118 217.605 438.179 C 213.204 433.471 200.697 425.143 193.850 422.361 C 187.527 419.792 177.268 419.326 167.500 421.165 "/></g>
</svg>
